<svg version="1.1" xmlns="http://www.w3.org/2000/svg" xmlns:xlink="http://www.w3.org/1999/xlink" width="788" height="532"><defs/><g><g transform="translate(-14,2) scale(1,1)"><rect fill="#C0C0C0" stroke="none" x="31" y="15" width="128" height="15" opacity="0.2"/></g><g transform="translate(-14,2) scale(1,1)"><rect fill="#C0C0C0" stroke="none" x="31" y="29" width="320" height="186" opacity="0.2"/></g><g transform="translate(-14,2) scale(1,1)"><rect fill="#ffffff" stroke="none" x="24" y="23" width="320" height="185"/></g><g transform="translate(-14,2) scale(1,1)"><path fill="none" stroke="#000000" d="M 24 23 L 344 23 L 344 208 L 24 208 L 24 23 Z Z" stroke-miterlimit="10"/></g><g transform="translate(-14,2) scale(1,1)"><rect fill="#ffffff" stroke="none" x="24" y="8" width="128" height="15"/></g><g transform="translate(-14,2) scale(1,1)"><path fill="none" stroke="#000000" d="M 24 8 L 152 8 L 152 23 L 24 23 L 24 8 Z Z" stroke-miterlimit="10"/></g><g transform="translate(-14,2) scale(1,1)"><rect fill="#ffffff" stroke="none" x="24" y="22" width="320" height="186"/></g><g transform="translate(-14,2) scale(1,1)"><path fill="none" stroke="#000000" d="M 24 22 L 344 22 L 344 208 L 24 208 L 24 22 Z Z" stroke-miterlimit="10"/></g><g transform="translate(-14,2) scale(1,1)"><g><path fill="none" stroke="none"/><text fill="#000000" stroke="none" font-family="Arial" font-size="13px" font-style="normal" font-weight="bold" text-decoration="none" x="168.108642578125" y="42.5">Tests</text></g></g><g transform="translate(-14,2) scale(1,1)"><rect fill="#C0C0C0" stroke="none" x="519" y="15" width="76.79999999999995" height="15" opacity="0.2"/></g><g transform="translate(-14,2) scale(1,1)"><rect fill="#C0C0C0" stroke="none" x="519" y="29" width="192" height="146" opacity="0.2"/></g><g transform="translate(-14,2) scale(1,1)"><rect fill="#ffffff" stroke="none" x="512" y="23" width="192" height="145"/></g><g transform="translate(-14,2) scale(1,1)"><path fill="none" stroke="#000000" d="M 512 23 L 704 23 L 704 168 L 512 168 L 512 23 Z Z" stroke-miterlimit="10"/></g><g transform="translate(-14,2) scale(1,1)"><rect fill="#ffffff" stroke="none" x="512" y="8" width="76.79999999999995" height="15"/></g><g transform="translate(-14,2) scale(1,1)"><path fill="none" stroke="#000000" d="M 512 8 L 588.8 8 L 588.8 23 L 512 23 L 512 8 Z Z" stroke-miterlimit="10"/></g><g transform="translate(-14,2) scale(1,1)"><rect fill="#ffffff" stroke="none" x="512" y="22" width="192" height="146"/></g><g transform="translate(-14,2) scale(1,1)"><path fill="none" stroke="#000000" d="M 512 22 L 704 22 L 704 168 L 512 168 L 512 22 Z Z" stroke-miterlimit="10"/></g><g transform="translate(-14,2) scale(1,1)"><path fill="none" stroke="#000000" d="M 579.8 11 L 573.8 18 L 585.8 18 L 579.8 11" stroke-miterlimit="10"/></g><g transform="translate(-14,2) scale(1,1)"><g><path fill="none" stroke="none"/><text fill="#000000" stroke="none" font-family="Arial" font-size="13px" font-style="normal" font-weight="bold" text-decoration="none" x="586.681396484375" y="42.5">Modele</text></g></g><g transform="translate(-14,2) scale(1,1)"><rect fill="#C0C0C0" stroke="none" x="423" y="223" width="150.39999999999998" height="15" opacity="0.2"/></g><g transform="translate(-14,2) scale(1,1)"><rect fill="#C0C0C0" stroke="none" x="423" y="237" width="376" height="130" opacity="0.2"/></g><g transform="translate(-14,2) scale(1,1)"><rect fill="#ffffff" stroke="none" x="416" y="231" width="376" height="129"/></g><g transform="translate(-14,2) scale(1,1)"><path fill="none" stroke="#000000" d="M 416 231 L 792 231 L 792 360 L 416 360 L 416 231 Z Z" stroke-miterlimit="10"/></g><g transform="translate(-14,2) scale(1,1)"><rect fill="#ffffff" stroke="none" x="416" y="216" width="150.39999999999998" height="15"/></g><g transform="translate(-14,2) scale(1,1)"><path fill="none" stroke="#000000" d="M 416 216 L 566.4 216 L 566.4 231 L 416 231 L 416 216 Z Z" stroke-miterlimit="10"/></g><g transform="translate(-14,2) scale(1,1)"><rect fill="#ffffff" stroke="none" x="416" y="230" width="376" height="130"/></g><g transform="translate(-14,2) scale(1,1)"><path fill="none" stroke="#000000" d="M 416 230 L 792 230 L 792 360 L 416 360 L 416 230 Z Z" stroke-miterlimit="10"/></g><g transform="translate(-14,2) scale(1,1)"><g><path fill="none" stroke="none"/><text fill="#000000" stroke="none" font-family="Arial" font-size="13px" font-style="normal" font-weight="bold" text-decoration="none" x="590.27001953125" y="250.5">Data</text></g></g><g transform="translate(-14,2) scale(1,1)"><rect fill="#C0C0C0" stroke="none" x="31" y="247" width="76.8" height="15" opacity="0.2"/></g><g transform="translate(-14,2) scale(1,1)"><rect fill="#C0C0C0" stroke="none" x="31" y="261" width="192" height="146" opacity="0.2"/></g><g transform="translate(-14,2) scale(1,1)"><rect fill="#ffffff" stroke="none" x="24" y="255" width="192" height="145"/></g><g transform="translate(-14,2) scale(1,1)"><path fill="none" stroke="#000000" d="M 24 255 L 216 255 L 216 400 L 24 400 L 24 255 Z Z" stroke-miterlimit="10"/></g><g transform="translate(-14,2) scale(1,1)"><rect fill="#ffffff" stroke="none" x="24" y="240" width="76.8" height="15"/></g><g transform="translate(-14,2) scale(1,1)"><path fill="none" stroke="#000000" d="M 24 240 L 100.8 240 L 100.8 255 L 24 255 L 24 240 Z Z" stroke-miterlimit="10"/></g><g transform="translate(-14,2) scale(1,1)"><rect fill="#ffffff" stroke="none" x="24" y="254" width="192" height="146"/></g><g transform="translate(-14,2) scale(1,1)"><path fill="none" stroke="#000000" d="M 24 254 L 216 254 L 216 400 L 24 400 L 24 254 Z Z" stroke-miterlimit="10"/></g><g transform="translate(-14,2) scale(1,1)"><g><path fill="none" stroke="none"/><text fill="#000000" stroke="none" font-family="Arial" font-size="13px" font-style="normal" font-weight="bold" text-decoration="none" x="88.56005859375" y="274.5">Vue_perso</text></g></g><g transform="translate(-14,2) scale(1,1)"><path fill="none" stroke="#000000" d="M 217 314 L 415 300" stroke-miterlimit="10" stroke-dasharray="3"/></g><g transform="translate(-14,2) scale(1,1)"><path fill="none" stroke="#000000" d="M 405.15953579388207 304.9158177557871 L 415 300 L 404.56573295963625 296.5177491000248" stroke-miterlimit="10"/></g><g transform="translate(-14,2) scale(1,1)"><path fill="none" stroke="#000000" d="M 217 274 L 511 134" stroke-miterlimit="10" stroke-dasharray="3"/></g><g transform="translate(-14,2) scale(1,1)"><path fill="none" stroke="#000000" d="M 503.6343351459757 142.1698825730968 L 511 134 L 500.0147090648374 134.5686678027065" stroke-miterlimit="10"/></g><g transform="translate(-14,2) scale(1,1)"><path fill="none" stroke="#000000" d="M 345 177 L 434 215" stroke-miterlimit="10" stroke-dasharray="3"/></g><g transform="translate(-14,2) scale(1,1)"><path fill="none" stroke="#000000" d="M 423.0006457801252 214.88080794606032 L 434 215 L 426.306563552058 207.13800053284936" stroke-miterlimit="10"/></g><g transform="translate(-14,2) scale(1,1)"><path fill="none" stroke="#000000" d="M 345 100 L 511 93" stroke-miterlimit="10" stroke-dasharray="3"/></g><g transform="translate(-14,2) scale(1,1)"><path fill="none" stroke="#000000" d="M 501.02370090084884 97.63394608128709 L 511 93 L 500.66899655811403 89.22238595357591" stroke-miterlimit="10"/></g><g transform="translate(-14,2) scale(1,1)"><path fill="none" stroke="#000000" d="M 605 215 L 606 169" stroke-miterlimit="10" stroke-dasharray="3"/></g><g transform="translate(-14,2) scale(1,1)"><path fill="none" stroke="#000000" d="M 609.9876478921751 179.25176395982814 L 606 169 L 601.570601050423 179.0687846806596" stroke-miterlimit="10"/></g><g transform="translate(-14,2) scale(1,1)"><rect fill="#C0C0C0" stroke="none" x="39" y="39" width="57.599999999999994" height="15" opacity="0.2"/></g><g transform="translate(-14,2) scale(1,1)"><rect fill="#C0C0C0" stroke="none" x="39" y="53" width="144" height="58" opacity="0.2"/></g><g transform="translate(-14,2) scale(1,1)"><rect fill="#ffffff" stroke="none" x="32" y="47" width="144" height="57"/></g><g transform="translate(-14,2) scale(1,1)"><path fill="none" stroke="#000000" d="M 32 47 L 176 47 L 176 104 L 32 104 L 32 47 Z Z" stroke-miterlimit="10"/></g><g transform="translate(-14,2) scale(1,1)"><rect fill="#ffffff" stroke="none" x="32" y="32" width="57.599999999999994" height="15"/></g><g transform="translate(-14,2) scale(1,1)"><path fill="none" stroke="#000000" d="M 32 32 L 89.6 32 L 89.6 47 L 32 47 L 32 32 Z Z" stroke-miterlimit="10"/></g><g transform="translate(-14,2) scale(1,1)"><rect fill="#ffffff" stroke="none" x="32" y="46" width="144" height="58"/></g><g transform="translate(-14,2) scale(1,1)"><path fill="none" stroke="#000000" d="M 32 46 L 176 46 L 176 104 L 32 104 L 32 46 Z Z" stroke-miterlimit="10"/></g><g transform="translate(-14,2) scale(1,1)"><g><path fill="none" stroke="none"/><text fill="#000000" stroke="none" font-family="Arial" font-size="13px" font-style="normal" font-weight="bold" text-decoration="none" x="52.688720703125" y="66.5">Test_Personnage</text></g></g><g transform="translate(-14,2) scale(1,1)"><rect fill="#C0C0C0" stroke="none" x="39" y="119" width="67.477734375" height="15" opacity="0.2"/></g><g transform="translate(-14,2) scale(1,1)"><rect fill="#C0C0C0" stroke="none" x="39" y="133" width="168.6943359375" height="65" opacity="0.2"/></g><g transform="translate(-14,2) scale(1,1)"><rect fill="#ffffff" stroke="none" x="32" y="127" width="168.6943359375" height="64"/></g><g transform="translate(-14,2) scale(1,1)"><path fill="none" stroke="#000000" d="M 32 127 L 200.6943359375 127 L 200.6943359375 191 L 32 191 L 32 127 Z Z" stroke-miterlimit="10"/></g><g transform="translate(-14,2) scale(1,1)"><rect fill="#ffffff" stroke="none" x="32" y="112" width="67.477734375" height="15"/></g><g transform="translate(-14,2) scale(1,1)"><path fill="none" stroke="#000000" d="M 32 112 L 99.477734375 112 L 99.477734375 127 L 32 127 L 32 112 Z Z" stroke-miterlimit="10"/></g><g transform="translate(-14,2) scale(1,1)"><rect fill="#ffffff" stroke="none" x="32" y="126" width="168.6943359375" height="65"/></g><g transform="translate(-14,2) scale(1,1)"><path fill="none" stroke="#000000" d="M 32 126 L 200.6943359375 126 L 200.6943359375 191 L 32 191 L 32 126 Z Z" stroke-miterlimit="10"/></g><g transform="translate(-14,2) scale(1,1)"><g><path fill="none" stroke="none"/><text fill="#000000" stroke="none" font-family="Arial" font-size="13px" font-style="normal" font-weight="bold" text-decoration="none" x="40.83544921875" y="146.5">Tests_Series_et_Groupes</text></g></g><g transform="translate(-14,2) scale(1,1)"><rect fill="#C0C0C0" stroke="none" x="239" y="71" width="42.32832031250001" height="15" opacity="0.2"/></g><g transform="translate(-14,2) scale(1,1)"><rect fill="#C0C0C0" stroke="none" x="239" y="85" width="105.82080078125" height="121" opacity="0.2"/></g><g transform="translate(-14,2) scale(1,1)"><rect fill="#ffffff" stroke="none" x="232" y="79" width="105.82080078125" height="120"/></g><g transform="translate(-14,2) scale(1,1)"><path fill="none" stroke="#000000" d="M 232 79 L 337.82080078125 79 L 337.82080078125 199 L 232 199 L 232 79 Z Z" stroke-miterlimit="10"/></g><g transform="translate(-14,2) scale(1,1)"><rect fill="#ffffff" stroke="none" x="232" y="64" width="42.32832031250001" height="15"/></g><g transform="translate(-14,2) scale(1,1)"><path fill="none" stroke="#000000" d="M 232 64 L 274.3283203125 64 L 274.3283203125 79 L 232 79 L 232 64 Z Z" stroke-miterlimit="10"/></g><g transform="translate(-14,2) scale(1,1)"><rect fill="#ffffff" stroke="none" x="232" y="78" width="105.82080078125" height="121"/></g><g transform="translate(-14,2) scale(1,1)"><path fill="none" stroke="#000000" d="M 232 78 L 337.82080078125 78 L 337.82080078125 199 L 232 199 L 232 78 Z Z" stroke-miterlimit="10"/></g><g transform="translate(-14,2) scale(1,1)"><g><path fill="none" stroke="none"/><text fill="#000000" stroke="none" font-family="Arial" font-size="13px" font-style="normal" font-weight="bold" text-decoration="none" x="239.75634765625" y="98.5">Tests_Unitaires</text></g></g><g transform="translate(-14,2) scale(1,1)"><rect fill="#C0C0C0" stroke="none" x="279" y="391" width="70" height="15" opacity="0.2"/></g><g transform="translate(-14,2) scale(1,1)"><rect fill="#C0C0C0" stroke="none" x="279" y="405" width="175" height="122" opacity="0.2"/></g><g transform="translate(-14,2) scale(1,1)"><rect fill="#ffffff" stroke="none" x="272" y="399" width="175" height="121"/></g><g transform="translate(-14,2) scale(1,1)"><path fill="none" stroke="#000000" d="M 272 399 L 447 399 L 447 520 L 272 520 L 272 399 Z Z" stroke-miterlimit="10"/></g><g transform="translate(-14,2) scale(1,1)"><rect fill="#ffffff" stroke="none" x="272" y="384" width="70" height="15"/></g><g transform="translate(-14,2) scale(1,1)"><path fill="none" stroke="#000000" d="M 272 384 L 342 384 L 342 399 L 272 399 L 272 384 Z Z" stroke-miterlimit="10"/></g><g transform="translate(-14,2) scale(1,1)"><rect fill="#ffffff" stroke="none" x="272" y="398" width="175" height="122"/></g><g transform="translate(-14,2) scale(1,1)"><path fill="none" stroke="#000000" d="M 272 398 L 447 398 L 447 520 L 272 520 L 272 398 Z Z" stroke-miterlimit="10"/></g><g transform="translate(-14,2) scale(1,1)"><g><path fill="none" stroke="none"/><text fill="#000000" stroke="none" font-family="Arial" font-size="13px" font-style="normal" font-weight="bold" text-decoration="none" x="298.791015625" y="418.5">Bibliothèque_Images</text></g></g><g transform="translate(-14,2) scale(1,1)"><path fill="none" stroke="#000000" d="M 120 401 L 120 448 L 271 451" stroke-miterlimit="10" stroke-dasharray="3"/></g><g transform="translate(-14,2) scale(1,1)"><path fill="none" stroke="#000000" d="M 260.7557139496903 455.00681960155805 L 271 451 L 260.9229465541584 446.5894451766641" stroke-miterlimit="10"/></g><g transform="translate(-14,2) scale(1,1)"><rect fill="#C0C0C0" stroke="none" x="439" y="271" width="63.60000000000002" height="15" opacity="0.2"/></g><g transform="translate(-14,2) scale(1,1)"><rect fill="#C0C0C0" stroke="none" x="439" y="285" width="159" height="57" opacity="0.2"/></g><g transform="translate(-14,2) scale(1,1)"><rect fill="#ffffff" stroke="none" x="432" y="279" width="159" height="56"/></g><g transform="translate(-14,2) scale(1,1)"><path fill="none" stroke="#000000" d="M 432 279 L 591 279 L 591 335 L 432 335 L 432 279 Z Z" stroke-miterlimit="10"/></g><g transform="translate(-14,2) scale(1,1)"><rect fill="#ffffff" stroke="none" x="432" y="264" width="63.60000000000002" height="15"/></g><g transform="translate(-14,2) scale(1,1)"><path fill="none" stroke="#000000" d="M 432 264 L 495.6 264 L 495.6 279 L 432 279 L 432 264 Z Z" stroke-miterlimit="10"/></g><g transform="translate(-14,2) scale(1,1)"><rect fill="#ffffff" stroke="none" x="432" y="278" width="159" height="57"/></g><g transform="translate(-14,2) scale(1,1)"><path fill="none" stroke="#000000" d="M 432 278 L 591 278 L 591 335 L 432 335 L 432 278 Z Z" stroke-miterlimit="10"/></g><g transform="translate(-14,2) scale(1,1)"><g><path fill="none" stroke="none"/><text fill="#000000" stroke="none" font-family="Arial" font-size="13px" font-style="normal" font-weight="bold" text-decoration="none" x="459.839599609375" y="298.5">DataContractPers</text></g></g><g transform="translate(-14,2) scale(1,1)"><rect fill="#C0C0C0" stroke="none" x="631" y="271" width="60.39999999999998" height="15" opacity="0.2"/></g><g transform="translate(-14,2) scale(1,1)"><rect fill="#C0C0C0" stroke="none" x="631" y="285" width="151" height="57" opacity="0.2"/></g><g transform="translate(-14,2) scale(1,1)"><rect fill="#ffffff" stroke="none" x="624" y="279" width="151" height="56"/></g><g transform="translate(-14,2) scale(1,1)"><path fill="none" stroke="#000000" d="M 624 279 L 775 279 L 775 335 L 624 335 L 624 279 Z Z" stroke-miterlimit="10"/></g><g transform="translate(-14,2) scale(1,1)"><rect fill="#ffffff" stroke="none" x="624" y="264" width="60.39999999999998" height="15"/></g><g transform="translate(-14,2) scale(1,1)"><path fill="none" stroke="#000000" d="M 624 264 L 684.4 264 L 684.4 279 L 624 279 L 624 264 Z Z" stroke-miterlimit="10"/></g><g transform="translate(-14,2) scale(1,1)"><rect fill="#ffffff" stroke="none" x="624" y="278" width="151" height="57"/></g><g transform="translate(-14,2) scale(1,1)"><path fill="none" stroke="#000000" d="M 624 278 L 775 278 L 775 335 L 624 335 L 624 278 Z Z" stroke-miterlimit="10"/></g><g transform="translate(-14,2) scale(1,1)"><g><path fill="none" stroke="none"/><text fill="#000000" stroke="none" font-family="Arial" font-size="13px" font-style="normal" font-weight="bold" text-decoration="none" x="681.793212890625" y="298.5">StubP</text></g></g></g></svg>